<svg width="30" height="25" viewBox="0 0 30 25" fill="none" xmlns="http://www.w3.org/2000/svg">
<g clip-path="url(#clip0_2042_4988)">
<path d="M22.8947 24.5C26.8332 24.4213 30 21.2644 30 17.3833C30 15.4959 29.2354 13.6857 27.8744 12.3511L15.7895 0.5V7.86626C15.7895 9.09818 16.2885 10.2797 17.1769 11.1508L20.0079 13.927L20.0156 13.9344L24.7624 18.5894C24.9165 18.7405 24.9165 18.9856 24.7624 19.1368C24.6083 19.288 24.3583 19.288 24.2042 19.1368L22.568 17.5323H7.43204L5.79585 19.1368C5.64169 19.288 5.39176 19.288 5.23761 19.1368C5.08345 18.9856 5.08345 18.7405 5.2376 18.5894L9.98443 13.9344L9.99214 13.927L12.8231 11.1508C13.7115 10.2797 14.2105 9.09818 14.2105 7.86626V0.5L2.12556 12.3511C0.764584 13.6857 0 15.4959 0 17.3833C0 21.2644 3.16685 24.4213 7.10529 24.5H22.8947Z" fill="#151515"/>
</g>
<defs>
<clipPath id="clip0_2042_4988">
<rect width="30" height="24" fill="white" transform="translate(0 0.5)"/>
</clipPath>
</defs>
</svg>
