<svg width="51" height="40" viewBox="0 0 51 40" fill="none" xmlns="http://www.w3.org/2000/svg">
<g id="Frame" clip-path="url(#clip0_1412_5073)">
<path id="Vector" d="M38.6579 40C45.2219 39.8689 50.5 34.6073 50.5 28.1389C50.5 24.9931 49.2257 21.9762 46.9573 19.7518L26.8158 0V12.2771C26.8158 14.3303 27.6476 16.2995 29.1282 17.7514L33.8464 22.3784L33.8593 22.3907L41.7706 30.149C42.0276 30.4009 42.0276 30.8094 41.7706 31.0613C41.5138 31.3133 41.0971 31.3133 40.8403 31.0613L38.1133 28.3871H12.8867L10.1597 31.0613C9.90282 31.3133 9.48627 31.3133 9.22935 31.0613C8.97242 30.8094 8.97242 30.4009 9.22934 30.149L17.1407 22.3907L17.1536 22.3784L21.8718 17.7514C23.3524 16.2995 24.1842 14.3303 24.1842 12.2771V0L4.0426 19.7518C1.77431 21.9762 0.5 24.9931 0.5 28.1389C0.5 34.6073 5.77808 39.8689 12.3421 40H38.6579Z" fill="white"/>
</g>
<defs>
<clipPath id="clip0_1412_5073">
<rect width="50" height="40" fill="white" transform="translate(0.5)"/>
</clipPath>
</defs>
</svg>
